<svg width="156" height="40" viewBox="0 0 156 40" fill="none" xmlns="http://www.w3.org/2000/svg">
<path fill-rule="evenodd" clip-rule="evenodd" d="M90.5572 29.3764C84.5536 33.6956 75.8518 36 68.3597 36C57.8545 36 48.3972 32.2076 41.2423 25.9C40.6802 25.404 41.1839 24.7281 41.8584 25.1143C49.5799 29.4993 59.1272 32.1373 68.9893 32.1373C75.6404 32.1373 82.9572 30.7942 89.6848 28.0069C90.7011 27.5856 91.5511 28.6566 90.5572 29.3764Z" fill="#CFD1D7"/>
<path fill-rule="evenodd" clip-rule="evenodd" d="M92.3027 26.6753C91.5588 25.7067 87.3669 26.2177 85.4854 26.4442C84.9122 26.5153 84.8247 26.0088 85.341 25.6445C88.6796 23.2588 94.1579 23.9474 94.7968 24.7471C95.4356 25.5512 94.6305 31.1268 91.4932 33.788C91.0118 34.1967 90.5524 33.9791 90.7668 33.437C91.4713 31.6511 93.0509 27.6482 92.3027 26.6753Z" fill="#CFD1D7"/>
<path fill-rule="evenodd" clip-rule="evenodd" d="M85.616 8.08428V5.62251C85.616 5.24995 85.8938 5 86.2273 5H97.0506C97.3979 5 97.6758 5.25467 97.6758 5.62251V7.73057C97.6712 8.08428 97.3794 8.54645 96.8607 9.27743L91.2522 17.4314C93.3363 17.3796 95.5362 17.6955 97.4257 18.7802C97.8518 19.0254 97.9676 19.3839 98 19.7376V22.3644C98 22.7228 97.611 23.1425 97.2034 22.9256C93.8735 21.1476 89.4507 20.9543 85.7688 22.9445C85.3937 23.152 85 22.7369 85 22.3785V19.8838C85 19.4829 85.0046 18.7991 85.3983 18.1907L91.896 8.70207H86.2412C85.8938 8.70207 85.616 8.45213 85.616 8.08428Z" fill="#CCCED4"/>
<path fill-rule="evenodd" clip-rule="evenodd" d="M47.8498 23H44.5834C44.271 22.9774 44.023 22.7466 44 22.4525V5.94118C44 5.61086 44.2802 5.34842 44.6294 5.34842H47.6752C47.9922 5.36198 48.2448 5.60181 48.2678 5.90045V8.05883H48.3275C49.1223 5.97285 50.6153 5 52.6275 5C54.6718 5 55.9489 5.97285 56.8677 8.05883C57.6579 5.97285 59.4542 5 61.379 5C62.748 5 64.2457 5.55656 65.1599 6.80543C66.1935 8.19457 65.9822 10.2127 65.9822 11.9819L65.9776 22.4027C65.9776 22.733 65.6974 23 65.3482 23H62.0865C61.7603 22.9774 61.4985 22.7195 61.4985 22.4027V13.6516C61.4985 12.9548 61.5628 11.2172 61.4066 10.5566C61.1631 9.44797 60.4327 9.13575 59.4863 9.13575C58.6961 9.13575 57.8692 9.65611 57.5339 10.4887C57.1985 11.3213 57.2307 12.7149 57.2307 13.6516V22.4027C57.2307 22.733 56.9504 23 56.6013 23H53.3396C53.0088 22.9774 52.7515 22.7195 52.7515 22.4027L52.7469 13.6516C52.7469 11.81 53.0547 9.09955 50.7348 9.09955C48.3873 9.09955 48.4791 11.7421 48.4791 13.6516V22.4027C48.4791 22.733 48.1989 23 47.8498 23" fill="#CCCED4"/>
<path fill-rule="evenodd" clip-rule="evenodd" d="M106.44 5C111.345 5 114 9.02269 114 14.1376C114 19.0794 111.066 23 106.44 23C101.622 23 99 18.9773 99 13.9645C99 8.92057 101.655 5 106.44 5ZM106.467 8.30785C104.031 8.30785 103.878 11.478 103.878 13.4539C103.878 15.4341 103.845 19.6611 106.44 19.6611C109.002 19.6611 109.122 16.2511 109.122 14.1732C109.122 12.8056 109.062 11.1717 108.63 9.87518C108.258 8.74741 107.518 8.30785 106.467 8.30785Z" fill="#CCCED4"/>
<path fill-rule="evenodd" clip-rule="evenodd" d="M119.725 23H116.574C116.258 22.9774 116.004 22.7195 116.004 22.4027L116 5.88688C116.027 5.58371 116.289 5.34842 116.61 5.34842H119.543C119.819 5.36198 120.046 5.55204 120.108 5.80996V8.33484H120.166C121.051 6.07692 122.293 5 124.478 5C125.898 5 127.282 5.52036 128.172 6.9457C129 8.26697 129 10.4887 129 12.086V22.4796C128.964 22.7692 128.702 23 128.39 23H125.217C124.928 22.9774 124.687 22.7602 124.656 22.4796V13.5113C124.656 11.7059 124.861 9.06335 122.676 9.06335C121.906 9.06335 121.198 9.58824 120.847 10.3846C120.402 11.3937 120.344 12.3982 120.344 13.5113V22.4027C120.339 22.733 120.063 23 119.725 23" fill="#CCCED4"/>
<path fill-rule="evenodd" clip-rule="evenodd" d="M77.2476 15.0566C77.2476 16.2838 77.2785 17.3072 76.6605 18.397C76.1617 19.283 75.3672 19.828 74.4888 19.828C73.2837 19.828 72.5775 18.9065 72.5775 17.5464C72.5775 14.8617 74.9743 14.3744 77.2476 14.3744V15.0566ZM80.4126 22.7342C80.2051 22.9203 79.9049 22.9335 79.671 22.8095C78.6293 21.9412 78.4394 21.538 77.87 20.7096C76.1485 22.4728 74.9258 23 72.6966 23C70.0526 23 68 21.3652 68 18.0913C68 15.5351 69.3772 13.794 71.3459 12.9434C73.0498 12.1903 75.429 12.0573 77.2476 11.8491V11.4415C77.2476 10.6928 77.305 9.80679 76.8636 9.15998C76.484 8.57962 75.7512 8.34039 75.1024 8.34039C73.9061 8.34039 72.8423 8.95619 72.5819 10.2321C72.5289 10.5156 72.3214 10.7947 72.0345 10.808L68.9932 10.4802C68.7372 10.4226 68.4502 10.2144 68.5253 9.82009C69.2227 6.11642 72.5598 5 75.5438 5C77.0711 5 79.0663 5.40758 80.2713 6.5683C81.7986 7.99926 81.6529 9.90869 81.6529 11.9865V16.8952C81.6529 18.3704 82.2621 19.0172 82.8359 19.8147C83.0346 20.0982 83.0787 20.4393 82.8227 20.652C82.1826 21.188 81.0438 22.1848 80.417 22.743L80.4126 22.7342" fill="#CCCED4"/>
<path fill-rule="evenodd" clip-rule="evenodd" d="M36.2452 15.0566C36.2452 16.2838 36.2761 17.3072 35.6583 18.397C35.1596 19.283 34.3697 19.828 33.4871 19.828C32.2823 19.828 31.5807 18.9065 31.5807 17.5464C31.5807 14.8617 33.9769 14.3744 36.2452 14.3744V15.0566ZM39.4093 22.7342C39.2019 22.9203 38.9018 22.9335 38.6679 22.8095C37.6265 21.9412 37.4411 21.538 36.8674 20.7096C35.1464 22.4728 33.9284 23 31.6954 23C29.0564 23 27 21.3652 27 18.0913C27 15.5351 28.3813 13.794 30.345 12.9434C32.0485 12.1903 34.4271 12.0573 36.2452 11.8491V11.4415C36.2452 10.6928 36.3026 9.80679 35.8657 9.15998C35.4818 8.57962 34.7492 8.34039 34.1049 8.34039C32.909 8.34039 31.841 8.95619 31.5807 10.2321C31.5277 10.5156 31.3203 10.7947 31.0379 10.808L27.9929 10.4802C27.737 10.4226 27.4545 10.2144 27.5251 9.82009C28.2268 6.11642 31.5586 5 34.5418 5C36.0687 5 38.0634 5.40758 39.2681 6.5683C40.795 7.99926 40.6494 9.90869 40.6494 11.9865V16.8952C40.6494 18.3704 41.2584 19.0172 41.8321 19.8147C42.0351 20.0982 42.0792 20.4393 41.8232 20.652C41.1833 21.188 40.0448 22.1848 39.4181 22.743L39.4093 22.7342" fill="#CCCED4"/>
</svg>
