<svg width="156" height="40" viewBox="0 0 156 40" fill="none" xmlns="http://www.w3.org/2000/svg">
<path d="M14.4201 33.1427C21.8318 33.1427 27.8402 27.2602 27.8402 20.0038C27.8402 12.7475 21.8318 6.86499 14.4201 6.86499C7.00838 6.86499 1 12.7475 1 20.0038C1 27.2602 7.00838 33.1427 14.4201 33.1427Z" fill="#BEC1C9"/>
<path d="M30.6299 33.1427C38.0416 33.1427 44.05 27.2602 44.05 20.0038C44.05 12.7475 38.0416 6.86499 30.6299 6.86499C23.2182 6.86499 17.2098 12.7475 17.2098 20.0038C17.2098 27.2602 23.2182 33.1427 30.6299 33.1427Z" fill="#DADDE5"/>
<path d="M22.5217 9.51099C25.7529 11.9082 27.8335 15.7071 27.8335 19.9775C27.8335 24.248 25.7529 28.0534 22.5217 30.4506C19.2904 28.0534 17.2098 24.2546 17.2098 19.9775C17.2098 15.7005 19.2971 11.9082 22.5217 9.51099Z" fill="#C7CBD6"/>
<path d="M155.063 20.4427V20.554H154.816V21.1828H154.695V20.554H154.448V20.4427H155.063ZM156 20.4427V21.1828H155.88V20.5737L155.659 21.1108H155.532L155.311 20.5802V21.1828H155.191V20.4427H155.378L155.599 20.9732L155.819 20.4427H156ZM63.3773 12.131C65.4311 12.131 66.8829 13.513 66.8829 15.491V20.7964H64.9896V16.1002C64.9896 14.6789 64.2403 13.8863 62.9826 13.8863C61.765 13.8863 60.7482 14.6723 60.7482 16.1198V20.8029H58.8549V16.1067C58.8549 14.6854 58.1056 13.8929 56.8479 13.8929C55.6303 13.8929 54.6135 14.6789 54.6135 16.1264V20.8095H52.7202V12.3602H54.5934V13.3886C55.2891 12.393 56.3595 12.1375 57.2426 12.1375C58.5605 12.1375 59.6309 12.7074 60.2263 13.644C60.9756 12.4257 62.3069 12.131 63.3773 12.131ZM77.8678 12.3471V20.7964H75.9879V19.7811C75.3925 20.5278 74.5027 21.0125 73.2785 21.0125C70.8634 21.0125 68.9634 19.1524 68.9634 16.5718C68.9634 13.9911 70.8634 12.131 73.2785 12.131C74.5027 12.131 75.3925 12.6222 75.9879 13.3755V12.3471H77.8678ZM73.4992 13.8667C71.8803 13.8667 70.8968 15.0915 70.8968 16.5718C70.8968 18.052 71.8803 19.2768 73.4992 19.2768C75.058 19.2768 76.1016 18.111 76.1016 16.5718C76.1016 15.0326 75.058 13.8667 73.4992 13.8667ZM87.3408 13.0283L86.5313 14.4627C86.0095 14.1483 84.9391 13.7422 83.8687 13.7422C82.8451 13.7422 82.2364 14.1483 82.2364 14.7444C82.2364 15.3338 82.8652 15.5041 83.6613 15.6155L84.5511 15.7465C86.431 16.0085 87.5482 16.7944 87.5482 18.2419C87.5482 19.8663 86.1098 20.9994 83.6212 20.9994C82.7314 20.9994 81.1793 20.8291 79.9216 19.9121L80.798 18.5301C81.4202 18.9952 82.2364 19.3947 83.6412 19.3947C84.9257 19.3947 85.6014 18.9952 85.6014 18.3664C85.6014 17.8883 85.1331 17.5739 84.1095 17.4298L83.2064 17.3184C81.2998 17.063 80.2829 16.1984 80.2829 14.8426C80.2829 13.1659 81.6543 12.1375 83.8486 12.1375C85.2 12.1375 86.451 12.465 87.3408 13.0283ZM95.4825 12.3471V14.0239H92.1777V17.6983C92.1777 18.838 92.7931 19.2768 93.5491 19.2768C94.1311 19.2768 94.7734 19.0214 95.2885 18.707L96.0378 20.1807C95.342 20.6392 94.4723 21.0191 93.3885 21.0191C91.4351 21.0191 90.2911 19.9907 90.2911 17.7376V14.0239H88.5718V12.3471H90.2911V9.79272H92.1843V12.3471H95.4825ZM101.289 12.131C103.704 12.131 105.357 13.9322 105.37 16.5652C105.37 16.801 105.35 17.0433 105.337 17.2529H98.9613C99.2155 18.7725 100.306 19.4013 101.53 19.4013C102.393 19.4013 103.316 19.0672 104.026 18.5105L104.962 19.827C103.912 20.7112 102.721 21.0191 101.417 21.0191C98.8342 21.0191 97.0011 19.2572 97.0011 16.5783C96.9944 13.9256 98.7539 12.131 101.289 12.131ZM101.256 13.7684C99.9113 13.7684 99.1687 14.6134 98.968 15.8513H103.444C103.236 14.5348 102.453 13.7684 101.256 13.7684ZM111.906 12.131C112.482 12.131 112.923 12.203 113.358 12.3668L112.91 14.1942C112.515 13.9911 111.94 13.8863 111.478 13.8863C110.281 13.8863 109.424 14.7182 109.424 16.1526V20.7964H107.545V12.3471H109.411V13.2969C109.973 12.4978 110.856 12.131 111.906 12.131ZM119.7 12.131C122.115 12.131 124.015 13.9911 124.015 16.5718C124.015 19.1524 122.115 21.0125 119.7 21.0125C118.476 21.0125 117.593 20.5278 116.997 19.7877V24.3201H115.118V12.3471H116.997V13.3493C117.593 12.6157 118.476 12.131 119.7 12.131ZM119.473 13.8667C117.914 13.8667 116.87 15.0326 116.87 16.5718C116.87 18.111 117.914 19.2768 119.473 19.2768C121.092 19.2768 122.075 18.052 122.075 16.5718C122.075 15.0915 121.092 13.8667 119.473 13.8667ZM134.465 12.3471V20.7964H132.585V19.7811C131.99 20.5278 131.1 21.0125 129.876 21.0125C127.461 21.0125 125.561 19.1524 125.561 16.5718C125.561 13.9911 127.461 12.131 129.876 12.131C131.1 12.131 131.99 12.6222 132.585 13.3755V12.3471H134.465ZM130.096 13.8667C128.477 13.8667 127.494 15.0915 127.494 16.5718C127.494 18.052 128.477 19.2768 130.096 19.2768C131.655 19.2768 132.699 18.111 132.699 16.5718C132.699 15.0326 131.655 13.8667 130.096 13.8667ZM143.938 13.0283L143.128 14.4627C142.607 14.1483 141.536 13.7422 140.466 13.7422C139.442 13.7422 138.834 14.1483 138.834 14.7444C138.834 15.3338 139.462 15.5041 140.258 15.6155L141.148 15.7465C143.028 16.0085 144.145 16.7944 144.145 18.2419C144.145 19.8663 142.707 20.9994 140.218 20.9994C139.329 20.9994 137.777 20.8291 136.519 19.9121L137.395 18.5301C138.017 18.9952 138.834 19.3947 140.238 19.3947C141.523 19.3947 142.199 18.9952 142.199 18.3664C142.199 17.8883 141.73 17.5739 140.707 17.4298L139.804 17.3184C137.897 17.063 136.88 16.1984 136.88 14.8426C136.88 13.1659 138.251 12.1375 140.446 12.1375C141.797 12.1375 143.048 12.465 143.938 13.0283ZM152.882 13.0283L152.073 14.4627C151.551 14.1483 150.481 13.7422 149.41 13.7422C148.387 13.7422 147.778 14.1483 147.778 14.7444C147.778 15.3338 148.407 15.5041 149.203 15.6155L150.093 15.7465C151.973 16.0085 153.09 16.7944 153.09 18.2419C153.09 19.8663 151.652 20.9994 149.163 20.9994C148.273 20.9994 146.721 20.8291 145.463 19.9121L146.34 18.5301C146.962 18.9952 147.778 19.3947 149.183 19.3947C150.467 19.3947 151.143 18.9952 151.143 18.3664C151.143 17.8883 150.675 17.5739 149.651 17.4298L148.748 17.3184C146.841 17.063 145.825 16.1984 145.825 14.8426C145.825 13.1659 147.196 12.1375 149.39 12.1375C150.742 12.1375 151.993 12.465 152.882 13.0283ZM55.0015 26.3616C56.1388 26.3616 57.0285 27.2327 57.0285 28.4509C57.0285 29.6692 56.1388 30.5403 55.0015 30.5403C54.4261 30.5403 54.0114 30.3111 53.7304 29.9639V30.4355H52.8473V24.4687H53.7304V26.9379C54.0047 26.5908 54.4261 26.3616 55.0015 26.3616ZM54.8944 27.1803C54.1652 27.1803 53.6702 27.7305 53.6702 28.4509C53.6702 29.1714 54.1585 29.7216 54.8944 29.7216C55.6571 29.7216 56.1187 29.1452 56.1187 28.4509C56.1187 27.7567 55.6571 27.1803 54.8944 27.1803ZM61.7383 26.4664L58.5338 32.1188H57.5503L59.0021 29.6234L57.2092 26.4664H58.1993L59.5038 28.7457L60.7615 26.4664H61.7383ZM69.2779 26.3616C70.2412 26.3616 70.9236 27.01 70.9236 27.9401V30.4355H70.0338V28.2283C70.0338 27.5602 69.6793 27.1868 69.0906 27.1868C68.5219 27.1868 68.0402 27.5536 68.0402 28.2348V30.4355H67.1505V28.2283C67.1505 27.5602 66.8026 27.1868 66.2072 27.1868C65.6385 27.1868 65.1568 27.5536 65.1568 28.2348V30.4355H64.2671V26.4664H65.1502V26.951C65.478 26.4795 65.9797 26.3616 66.3945 26.3616C67.01 26.3616 67.5184 26.6301 67.7927 27.0689C68.1473 26.5057 68.7761 26.3616 69.2779 26.3616ZM76.0013 26.4664V30.4355H75.1182V29.9574C74.8372 30.3111 74.4225 30.5403 73.8471 30.5403C72.7098 30.5403 71.8201 29.6692 71.8201 28.4509C71.8201 27.2327 72.7165 26.3616 73.8471 26.3616C74.4225 26.3616 74.8439 26.5908 75.1182 26.9445V26.4664H76.0013ZM73.9475 27.1803C73.1848 27.1803 72.7232 27.7567 72.7232 28.4509C72.7232 29.1452 73.1848 29.7216 73.9475 29.7216C74.6767 29.7216 75.1717 29.1714 75.1717 28.4509C75.1717 27.7239 74.6834 27.1803 73.9475 27.1803ZM80.3699 26.7873L79.9885 27.4619C79.741 27.3113 79.2392 27.1213 78.7375 27.1213C78.2558 27.1213 77.9681 27.3113 77.9681 27.5929C77.9681 27.868 78.2625 27.9466 78.6371 28.0056L79.0586 28.0711C79.9417 28.1955 80.4702 28.5623 80.4702 29.2435C80.4702 30.0032 79.7945 30.5403 78.6238 30.5403C78.2023 30.5403 77.4798 30.4617 76.8844 30.0294L77.2925 29.381C77.5868 29.6037 77.9681 29.7871 78.6305 29.7871C79.2326 29.7871 79.5537 29.6037 79.5537 29.3024C79.5537 29.0797 79.3329 28.9291 78.8512 28.8636L78.4298 28.8112C77.5333 28.6933 77.0516 28.2872 77.0516 27.6453C77.0516 26.8593 77.6939 26.3747 78.7308 26.3747C79.3597 26.3681 79.9484 26.5188 80.3699 26.7873ZM84.1095 26.4664V27.2523H82.5575V28.9815C82.5575 29.5186 82.8451 29.7216 83.1997 29.7216C83.474 29.7216 83.775 29.6037 84.0159 29.4531L84.3638 30.1473C84.036 30.3635 83.6279 30.5403 83.1194 30.5403C82.2029 30.5403 81.661 30.0556 81.661 29.0011V27.2523H80.8515V26.4664H81.661V25.2677H82.5508V26.4664H84.1095ZM86.7521 26.3616C87.8894 26.3616 88.6654 27.2065 88.6721 28.4444C88.6721 28.5557 88.6654 28.6671 88.652 28.7653H85.6549C85.7753 29.4793 86.2838 29.774 86.8591 29.774C87.2672 29.774 87.6954 29.6168 88.0299 29.3548L88.4714 29.9705C87.9763 30.3831 87.4144 30.5272 86.8056 30.5272C85.588 30.5272 84.7317 29.6954 84.7317 28.4378C84.7384 27.2065 85.5613 26.3616 86.7521 26.3616ZM86.7387 27.1344C86.1098 27.1344 85.7553 27.534 85.6616 28.1104H87.7623C87.6686 27.4947 87.3007 27.1344 86.7387 27.1344ZM91.6558 26.3616C91.9234 26.3616 92.1308 26.3943 92.3382 26.4729L92.1241 27.3309C91.9368 27.2327 91.6692 27.1868 91.4484 27.1868C90.8865 27.1868 90.4851 27.5733 90.4851 28.2544V30.4355H89.602V26.4664H90.4784V26.9117C90.746 26.5384 91.1608 26.3616 91.6558 26.3616ZM94.7533 26.3616C95.3554 26.3616 95.9107 26.5777 96.2652 26.9969L95.6966 27.5864C95.4156 27.3244 95.1146 27.1737 94.7198 27.1737C94.0375 27.1737 93.5223 27.6977 93.5223 28.4444C93.5223 29.1911 94.0375 29.7151 94.7198 29.7151C95.1079 29.7151 95.4557 29.5382 95.7167 29.3024L96.2652 29.8984C95.8973 30.3176 95.3554 30.5338 94.7533 30.5338C93.4621 30.5338 92.6192 29.6365 92.6192 28.4444C92.6192 27.2589 93.4621 26.3616 94.7533 26.3616ZM100.901 26.4664V30.4355H100.018V29.9574C99.7373 30.3111 99.3225 30.5403 98.7472 30.5403C97.6099 30.5403 96.7201 29.6692 96.7201 28.4509C96.7201 27.2327 97.6099 26.3616 98.7472 26.3616C99.3225 26.3616 99.744 26.5908 100.018 26.9445V26.4664H100.901ZM98.8542 27.1803C98.0916 27.1803 97.63 27.7567 97.63 28.4509C97.63 29.1452 98.0916 29.7216 98.8542 29.7216C99.5835 29.7216 100.079 29.1714 100.079 28.4509C100.072 27.7239 99.5835 27.1803 98.8542 27.1803ZM104.186 26.3616C104.454 26.3616 104.661 26.3943 104.869 26.4729L104.654 27.3309C104.467 27.2327 104.2 27.1868 103.979 27.1868C103.417 27.1868 103.015 27.5733 103.015 28.2544V30.4355H102.132V26.4664H103.009V26.9117C103.27 26.5384 103.684 26.3616 104.186 26.3616ZM107.337 26.3616C107.912 26.3616 108.334 26.5908 108.608 26.9445V24.4687H109.491V30.4355H108.608V29.9574C108.327 30.3111 107.912 30.5403 107.337 30.5403C106.2 30.5403 105.31 29.6692 105.31 28.4509C105.31 27.2327 106.207 26.3616 107.337 26.3616ZM107.444 27.1803C106.682 27.1803 106.22 27.7567 106.22 28.4509C106.22 29.1452 106.682 29.7216 107.444 29.7216C108.173 29.7216 108.668 29.1714 108.668 28.4509C108.668 27.7239 108.18 27.1803 107.444 27.1803Z" fill="#A1A6B2"/>
</svg>
