<svg width="156" height="40" viewBox="0 0 156 40" fill="none" xmlns="http://www.w3.org/2000/svg">
<path d="M65.1472 11.2203V27.6949H62.0722V14.7669H62.0312L56.5371 27.6949H54.4871L48.87 14.7669H48.829V27.6949H46V11.2203H50.428L55.5121 23.4237H55.5941L60.9651 11.2203H65.1472ZM67.6892 12.4788C67.6892 12.0212 67.8532 11.6398 68.2222 11.3347C68.5912 11.0297 69.0012 10.8771 69.4932 10.8771C70.0262 10.8771 70.4772 11.0297 70.8052 11.3347C71.1332 11.6398 71.3383 12.0212 71.3383 12.4788C71.3383 12.9364 71.1742 13.3178 70.8052 13.6229C70.4362 13.928 70.0262 14.0805 69.4932 14.0805C68.9602 14.0805 68.5502 13.928 68.2222 13.6229C67.8942 13.2797 67.6892 12.8983 67.6892 12.4788ZM71.0102 15.8729V27.6949H68.0172V15.8729H71.0102ZM80.0713 25.6737C80.5223 25.6737 81.0143 25.5975 81.5474 25.3686C82.0804 25.178 82.5724 24.911 83.0234 24.6059V27.1992C82.5314 27.4661 81.9984 27.6568 81.3834 27.7712C80.7683 27.8856 80.1123 27.9619 79.3743 27.9619C77.4883 27.9619 75.9713 27.428 74.8233 26.322C73.6343 25.2161 73.0603 23.8051 73.0603 22.1271C73.0603 20.2203 73.6753 18.6568 74.8643 17.4364C76.0533 16.2161 77.7343 15.6059 79.9483 15.6059C80.5223 15.6059 81.0964 15.6822 81.6294 15.7966C82.2034 15.911 82.6544 16.1017 82.9824 16.2542V18.9237C82.5314 18.6186 82.0394 18.3517 81.5884 18.1992C81.0964 18.0466 80.6043 17.9322 80.1123 17.9322C78.9233 17.9322 77.9803 18.2754 77.2423 19C76.5043 19.7246 76.1763 20.678 76.1763 21.8983C76.1763 23.0805 76.5453 24.0339 77.2423 24.6822C77.9393 25.3305 78.8823 25.6737 80.0713 25.6737ZM91.5105 15.6822C91.7565 15.6822 91.9615 15.6822 92.1665 15.7203C92.3715 15.7585 92.5355 15.7966 92.6585 15.8347V18.6568C92.4945 18.5424 92.2895 18.428 91.9615 18.3517C91.6335 18.2754 91.3055 18.1992 90.8545 18.1992C90.1164 18.1992 89.5014 18.5042 89.0094 19.0763C88.5174 19.6483 88.2304 20.5254 88.2304 21.7458V27.6949H85.2374V15.8729H88.2304V17.7415H88.2714C88.5584 17.0932 88.9684 16.5975 89.5014 16.2161C90.0754 15.8729 90.7314 15.6822 91.5105 15.6822ZM92.8225 21.9746C92.8225 20.0297 93.4375 18.4661 94.5855 17.322C95.7745 16.178 97.4145 15.6059 99.5055 15.6059C101.474 15.6059 103.032 16.1398 104.139 17.2458C105.246 18.3517 105.82 19.839 105.82 21.7076C105.82 23.6144 105.205 25.1398 104.057 26.2839C102.868 27.428 101.269 28 99.2185 28C97.2505 28 95.6925 27.4661 94.5445 26.3983C93.3965 25.2924 92.8225 23.8051 92.8225 21.9746ZM95.9385 21.8602C95.9385 23.0805 96.2255 24.0339 96.8405 24.6822C97.4555 25.3305 98.3165 25.6737 99.4235 25.6737C100.49 25.6737 101.351 25.3686 101.925 24.6822C102.499 24.0339 102.786 23.0805 102.786 21.7839C102.786 20.5254 102.499 19.572 101.925 18.8856C101.351 18.2373 100.49 17.8941 99.4645 17.8941C98.3575 17.8941 97.5375 18.2373 96.9225 18.9237C96.2255 19.6483 95.9385 20.6017 95.9385 21.8602ZM110.289 19C110.289 19.3814 110.412 19.7246 110.699 19.9534C110.986 20.1822 111.56 20.4492 112.503 20.7924C113.692 21.25 114.553 21.7458 115.004 22.2797C115.496 22.8517 115.742 23.5 115.742 24.3008C115.742 25.4068 115.291 26.2839 114.348 26.9703C113.446 27.6568 112.175 27.9619 110.617 27.9619C110.084 27.9619 109.51 27.8856 108.854 27.7712C108.198 27.6568 107.665 27.5042 107.214 27.3136V24.5678C107.747 24.911 108.362 25.2161 108.977 25.4068C109.592 25.5975 110.166 25.7119 110.699 25.7119C111.355 25.7119 111.888 25.6356 112.175 25.4449C112.503 25.2542 112.667 24.9873 112.667 24.5678C112.667 24.1864 112.503 23.8814 112.175 23.5763C111.847 23.3093 111.191 23.0042 110.289 22.661C109.182 22.2415 108.403 21.7458 107.952 21.2119C107.501 20.678 107.255 19.9915 107.255 19.1525C107.255 18.0847 107.706 17.2076 108.608 16.5212C109.51 15.8347 110.699 15.4915 112.134 15.4915C112.585 15.4915 113.077 15.5297 113.61 15.6441C114.143 15.7585 114.635 15.8729 115.004 15.9873V18.6949C114.594 18.4661 114.143 18.2373 113.61 18.0466C113.077 17.8559 112.544 17.7797 112.052 17.7797C111.478 17.7797 111.027 17.8941 110.74 18.0847C110.453 18.3517 110.289 18.6186 110.289 19ZM117.013 21.9746C117.013 20.0297 117.628 18.4661 118.776 17.322C119.965 16.178 121.605 15.6059 123.696 15.6059C125.664 15.6059 127.222 16.1398 128.329 17.2458C129.436 18.3517 130.01 19.839 130.01 21.7076C130.01 23.6144 129.395 25.1398 128.247 26.2839C127.058 27.428 125.459 28 123.409 28C121.441 28 119.883 27.4661 118.735 26.3983C117.628 25.2924 117.013 23.8051 117.013 21.9746ZM120.129 21.8602C120.129 23.0805 120.416 24.0339 121.031 24.6822C121.646 25.3305 122.507 25.6737 123.614 25.6737C124.68 25.6737 125.541 25.3686 126.115 24.6822C126.689 24.0339 126.976 23.0805 126.976 21.7839C126.976 20.5254 126.689 19.572 126.115 18.8856C125.541 18.2373 124.68 17.8941 123.655 17.8941C122.548 17.8941 121.728 18.2373 121.113 18.9237C120.457 19.6483 120.129 20.6017 120.129 21.8602ZM139.973 18.161H135.504V27.6949H132.47V18.161H130.338V15.8729H132.47V14.2331C132.47 13.0127 132.921 11.9831 133.782 11.1822C134.643 10.3814 135.75 10 137.103 10C137.472 10 137.8 10.0381 138.087 10.0381C138.374 10.0381 138.62 10.1144 138.825 10.1907V12.5932C138.743 12.5551 138.538 12.4788 138.292 12.4025C138.046 12.3263 137.759 12.2881 137.431 12.2881C136.816 12.2881 136.324 12.4788 135.996 12.822C135.668 13.1653 135.504 13.7373 135.504 14.4237V15.8347H139.973V13.1653L142.966 12.3263V15.8347H146V18.1229H142.966V23.6525C142.966 24.3771 143.13 24.8729 143.376 25.178C143.663 25.483 144.114 25.6356 144.729 25.6356C144.893 25.6356 145.098 25.5975 145.344 25.5212C145.59 25.4449 145.795 25.3686 145.959 25.2542V27.5424C145.754 27.6568 145.467 27.733 145.016 27.8093C144.565 27.8856 144.155 27.9237 143.704 27.9237C142.433 27.9237 141.49 27.6186 140.875 27.0085C140.26 26.3983 139.932 25.4449 139.932 24.1864L139.973 18.161Z" fill="#BFC1C8"/>
<path d="M21.0812 5.41821H7V18.7958H21.0812V5.41821Z" fill="#ADB1BB"/>
<path d="M36.6445 5.41821H22.5634V18.7958H36.6445V5.41821Z" fill="#CACCD2"/>
<path d="M21.0812 20.2039H7V33.5815H21.0812V20.2039Z" fill="#D5D8DF"/>
<path d="M36.6445 20.2039H22.5634V33.5815H36.6445V20.2039Z" fill="#CFD1D7"/>
</svg>
