<svg width="156" height="40" viewBox="0 0 156 40" fill="none" xmlns="http://www.w3.org/2000/svg">
<path fill-rule="evenodd" clip-rule="evenodd" d="M38.0305 13.6067C36.3148 13.6067 34.8703 14.2267 33.697 15.1134V13.6935H29.7231V28.8781H33.88V19.1994C34.4224 18.3996 35.8669 17.3331 37.5827 17.3331C38.2134 17.3331 38.7559 17.4199 39.2101 17.5997V13.6935C38.8442 13.6067 38.4847 13.6067 38.0305 13.6067ZM2.08222 24.2589C3.16716 25.2385 4.69997 25.7656 6.32739 25.7656C7.41233 25.7656 8.31435 25.2323 8.31435 24.5255C8.31435 22.219 0.908963 23.0188 0.908963 18.1329C0.908963 15.2002 3.79795 13.4269 6.78155 13.4269C8.76851 13.4269 10.9384 14.1399 12.0234 14.9336L10.1247 17.8663C9.31099 17.3331 8.32066 16.7999 7.14109 16.7999C5.96784 16.7999 5.06582 17.2463 5.06582 18.0399C5.06582 19.993 12.4712 19.1932 12.4712 24.5193C12.4712 27.4521 9.58222 29.2254 6.32739 29.2254C4.15749 29.2254 1.99391 28.5123 0.183563 27.1854L2.08222 24.2589ZM28.0074 21.1525C28.0074 16.8929 25.0238 13.4269 20.7786 13.4269C16.1739 13.4269 13.2849 17.1533 13.2849 21.3261C13.2849 26.119 16.7164 29.2254 21.3211 29.2254C23.6676 29.2254 26.1087 28.2457 27.6415 26.4724L25.295 24.1659C24.5696 24.9657 23.1251 25.9392 21.4094 25.9392C19.2395 25.9392 17.4355 24.4325 17.2525 22.2996H27.9128C27.9128 21.9524 28.0074 21.5927 28.0074 21.1525ZM17.4355 19.373C17.6184 17.9531 19.0629 16.7069 20.684 16.7069C22.3997 16.7069 23.573 18.0399 23.7559 19.373H17.4355ZM49.0503 23.0126L53.2955 13.6873H57.5406L50.4948 28.8719H47.6058L40.56 13.6935H44.8934L49.0503 23.0126ZM61.0667 6.58789C62.5112 6.58789 63.7791 7.74116 63.7791 9.16103C63.7791 10.5809 62.6058 11.7342 61.0667 11.7342C59.5276 11.7342 58.3543 10.5809 58.3543 9.16103C58.3543 7.74736 59.5276 6.58789 61.0667 6.58789ZM58.9851 13.6935H63.142V28.8781H58.9851V13.6935ZM80.1227 25.7656C78.3186 28.1651 76.0604 29.1386 73.1651 29.1386C68.3775 29.1386 64.946 25.5858 64.946 21.2393C64.946 16.7999 68.5604 13.3401 73.2534 13.3401C75.8712 13.3401 78.3123 14.5801 79.7568 16.3596L76.8678 18.9328C76.0541 17.8663 74.7925 17.1595 73.348 17.1595C71.0015 17.1595 69.1912 19.0258 69.1912 21.3323C69.1912 23.7319 70.9069 25.5052 73.4364 25.5052C75.1521 25.5052 76.42 24.5255 77.139 23.4652L80.1227 25.7656ZM95.1163 26.4786C93.6719 28.2519 91.1424 29.2316 88.7959 29.2316C84.1912 29.2316 80.7597 26.1252 80.7597 21.3323C80.7597 17.0727 83.6487 13.4331 88.2534 13.4331C92.4986 13.4331 95.4822 16.9859 95.4822 21.1587C95.4822 21.6051 95.4822 21.9586 95.3939 22.312H84.7337C84.9166 24.4449 86.7206 25.9516 88.8905 25.9516C90.6063 25.9516 92.0507 24.9719 92.7761 24.1783L95.1163 26.4786ZM91.2307 19.373C91.1424 18.0399 89.8745 16.7069 88.1588 16.7069C86.4431 16.7069 85.0869 17.9469 84.9103 19.373H91.2307ZM97.1033 28.8719V13.6935H101.077V14.9336C102.25 13.9539 103.695 13.4269 105.411 13.4269C107.581 13.4269 109.473 14.4065 110.741 15.9132C111.737 17.0665 112.368 18.6662 112.368 21.2393V28.9649H108.211V20.8859C108.211 19.3792 107.852 18.5794 107.309 18.0461C106.767 17.5129 105.953 17.1595 104.963 17.1595C103.247 17.1595 101.803 18.2259 101.26 19.0258V28.8781H97.1033V28.8719Z" fill="#CCCED4"/>
<path fill-rule="evenodd" clip-rule="evenodd" d="M122.934 13.427C118.058 13.427 113.901 17.3332 113.901 22.2191C113.901 24.7922 114.986 27.105 116.702 28.7915C117.333 29.4115 118.329 29.4115 119.048 28.8783C120.045 28.0784 121.395 27.6382 122.934 27.6382C124.467 27.6382 125.735 28.0846 126.82 28.8783C127.545 29.4115 128.535 29.3247 129.166 28.6985C130.882 27.0988 131.967 24.7922 131.967 22.2191C131.878 17.42 127.904 13.427 122.934 13.427ZM122.846 26.7454C120.228 26.7454 118.329 24.7922 118.329 22.3059C118.329 19.8196 120.133 17.8665 122.846 17.8665C125.558 17.8665 127.362 19.9064 127.362 22.3059C127.362 24.7054 125.552 26.7454 122.846 26.7454Z" fill="#B2B7C2"/>
<path fill-rule="evenodd" clip-rule="evenodd" d="M140.003 28.878H136.931L130.787 13.6934H134.944L138.287 22.3924L141.63 13.6934H145.062L148.31 22.3924L151.653 13.6934H155.81L149.666 28.878H146.595L143.346 20.2657L140.003 28.878Z" fill="#CCCED4"/>
</svg>
