<svg width="156" height="40" viewBox="0 0 156 40" fill="none" xmlns="http://www.w3.org/2000/svg">
<path d="M141.28 24.6122C140.883 24.6122 140.561 24.937 140.561 25.3368C140.561 25.7366 140.883 26.0613 141.28 26.0613C141.677 26.0613 142 25.7366 142 25.3368C142 24.937 141.677 24.6122 141.28 24.6122ZM141.28 25.9464C140.946 25.9464 140.675 25.6722 140.675 25.3368C140.675 24.9998 140.947 24.7271 141.28 24.7271C141.615 24.7271 141.887 25.0013 141.887 25.3368C141.887 25.6722 141.615 25.9464 141.28 25.9464ZM141.515 25.2127C141.515 25.081 141.422 25.0028 141.285 25.0028H141.055V25.663H141.168V25.4241H141.291L141.41 25.663H141.531L141.4 25.3996C141.471 25.3674 141.515 25.303 141.515 25.2127ZM141.28 25.3214H141.169V25.1024H141.28C141.356 25.1024 141.402 25.1407 141.402 25.2112C141.402 25.2832 141.355 25.3214 141.28 25.3214ZM54.5857 17.2797V15.5273H51.9176V25.9525H54.5857V19.7014C54.5857 18.5694 55.3067 18.0134 56.4309 18.0134H57.8912V15.5273H56.6438C55.6672 15.5273 54.8184 16.0404 54.5857 17.2797ZM60.3904 11.4038C59.4777 11.4038 58.778 12.1299 58.778 13.0489C58.778 13.9466 59.4777 14.6726 60.3904 14.6726C61.3031 14.6726 62.0028 13.9466 62.0028 13.0489C62.0028 12.1298 61.3031 11.4038 60.3904 11.4038ZM59.0594 25.9526H61.7214V15.5273H59.0594V25.9526ZM74.4017 20.7399C74.4017 23.7161 72.0059 26.1287 69.0503 26.1287C67.8577 26.1287 66.7761 25.735 65.9091 25.0702V29.013H63.2471V15.5273H65.9091V16.4096C66.7761 15.7448 67.8577 15.3512 69.0503 15.3512C72.0059 15.3512 74.4017 17.7637 74.4017 20.7399ZM71.7229 20.7399C71.7229 19.1239 70.4209 17.8127 68.816 17.8127C67.2112 17.8127 65.9091 19.1239 65.9091 20.7399C65.9091 22.3559 67.2112 23.6671 68.816 23.6671C70.4209 23.6671 71.7229 22.3575 71.7229 20.7399ZM120.669 19.8255L119.116 19.3966C118.094 19.1285 117.697 18.813 117.697 18.2692C117.697 17.7392 118.256 17.3685 119.056 17.3685C119.819 17.3685 120.416 17.8709 120.416 18.5142V18.574H122.87V18.5142C122.87 16.6225 121.338 15.3511 119.056 15.3511C116.798 15.3511 115.156 16.6209 115.156 18.3718C115.156 19.7335 116.052 20.7598 117.616 21.1856L119.104 21.5946C120.234 21.9101 120.654 22.2594 120.654 22.8859C120.654 23.5461 120.047 23.9903 119.143 23.9903C118.202 23.9903 117.567 23.3898 117.567 22.4984V22.4386H114.963V22.4984C114.963 24.6367 116.673 26.1317 119.122 26.1317C121.481 26.1317 123.194 24.672 123.194 22.6623C123.194 21.6758 122.756 20.3861 120.669 19.8255ZM83.845 15.5273H86.5069V25.9525H83.845V25.0702C82.9779 25.735 81.8963 26.1287 80.7038 26.1287C77.7482 26.1287 75.3524 23.7161 75.3524 20.7399C75.3524 17.7636 77.7482 15.3511 80.7038 15.3511C81.8963 15.3511 82.9779 15.7448 83.845 16.4096V15.5273ZM83.845 20.7399C83.845 19.1224 82.5429 17.8127 80.938 17.8127C79.3332 17.8127 78.0311 19.1239 78.0311 20.7399C78.0311 22.3559 79.3332 23.6671 80.938 23.6671C82.5443 23.6671 83.845 22.3575 83.845 20.7399ZM96.1191 11.8174H98.7811V25.9541H96.1191V25.0717C95.252 25.7365 94.1705 26.1302 92.9779 26.1302C90.0223 26.1302 87.6265 23.7177 87.6265 20.7414C87.6265 17.7652 90.0223 15.3527 92.9779 15.3527C94.1705 15.3527 95.252 15.7463 96.1191 16.4111V11.8174ZM96.1191 20.7399C96.1191 19.1239 94.817 17.8127 93.2121 17.8127C91.6074 17.8127 90.3053 19.1239 90.3053 20.7399C90.3053 22.3559 91.6058 23.6671 93.2121 23.6671C94.817 23.6671 96.1191 22.3575 96.1191 20.7399ZM111.14 25.9526H113.802V15.5273H111.14V25.9526ZM112.471 11.4038C111.559 11.4038 110.859 12.1299 110.859 13.0489C110.859 13.9466 111.559 14.6726 112.471 14.6726C113.384 14.6726 114.084 13.9466 114.084 13.0489C114.084 12.1298 113.384 11.4038 112.471 11.4038ZM134.7 20.7399C134.7 23.7161 132.304 26.1287 129.348 26.1287C126.393 26.1287 123.997 23.7162 123.997 20.7399C123.997 17.7637 126.393 15.3512 129.348 15.3512C132.304 15.3512 134.7 17.7637 134.7 20.7399ZM132.255 20.7399C132.255 19.1239 130.953 17.8127 129.349 17.8127C127.744 17.8127 126.442 19.1239 126.442 20.7399C126.442 22.3559 127.742 23.6671 129.349 23.6671C130.953 23.6671 132.255 22.3575 132.255 20.7399ZM53.2227 11.8174H43.0113V14.2085H46.7913V25.9525H49.4442V14.2085H53.2243V11.8174H53.2227ZM104.864 23.0973L102.496 15.5273H99.6998L103.252 25.9526H106.455L110.028 15.5273H107.233L104.864 23.0973ZM138.6 17.2797V15.5273H135.932V25.9525H138.6V19.7014C138.6 18.5694 139.321 18.0134 140.445 18.0134H141.906V15.5273H140.658C139.682 15.5273 138.834 16.0404 138.6 17.2797Z" fill="#A1A6B2"/>
<path d="M27.6143 33.7092C35.1332 33.7092 41.2286 27.5713 41.2286 19.9998C41.2286 12.4284 35.1332 6.29053 27.6143 6.29053C20.0953 6.29053 14 12.4284 14 19.9998C14 27.5713 20.0953 33.7092 27.6143 33.7092Z" fill="#E9EBEF"/>
<path d="M36.0231 17.3255L37.666 15.5257H34.0228C32.199 14.2712 29.9963 13.5405 27.6142 13.5405C25.2351 13.5405 23.0386 14.2727 21.2178 15.5257H17.5655L19.2084 17.3255C18.2014 18.2507 17.5701 19.5834 17.5701 21.0631C17.5701 23.8555 19.8184 26.1194 22.5914 26.1194C23.9088 26.1194 25.1089 25.6078 26.0049 24.7715L27.6143 26.5361L29.2236 24.773C30.1196 25.6094 31.3182 26.1194 32.6356 26.1194C35.4086 26.1194 37.6599 23.8555 37.6599 21.0631C37.6614 19.5818 37.0302 18.2492 36.0231 17.3255ZM22.5929 24.485C20.7158 24.485 19.1947 22.9533 19.1947 21.0631C19.1947 19.1728 20.7158 17.6411 22.5929 17.6411C24.47 17.6411 25.9911 19.1728 25.9911 21.0631C25.9911 22.9533 24.47 24.485 22.5929 24.485ZM27.6157 20.9635C27.6157 18.7118 25.9897 16.7787 23.8433 15.9531C25.0039 15.4644 26.2771 15.1933 27.6142 15.1933C28.9513 15.1933 30.226 15.4644 31.3867 15.9531C29.2419 16.7802 27.6157 18.7118 27.6157 20.9635ZM32.6371 24.485C30.76 24.485 29.2388 22.9533 29.2388 21.0631C29.2388 19.1728 30.76 17.6411 32.6371 17.6411C34.5142 17.6411 36.0353 19.1728 36.0353 21.0631C36.0353 22.9533 34.5142 24.485 32.6371 24.485ZM32.6371 19.2678C31.6529 19.2678 30.8558 20.0705 30.8558 21.0615C30.8558 22.0526 31.6529 22.8552 32.6371 22.8552C33.6212 22.8552 34.4183 22.0526 34.4183 21.0615C34.4183 20.072 33.6212 19.2678 32.6371 19.2678ZM24.3742 21.0631C24.3742 22.0541 23.5771 22.8568 22.5929 22.8568C21.6088 22.8568 20.8117 22.0541 20.8117 21.0631C20.8117 20.072 21.6088 19.2693 22.5929 19.2693C23.5771 19.2678 24.3742 20.072 24.3742 21.0631Z" fill="#A1A6B2"/>
</svg>
