<svg width="156" height="40" viewBox="0 0 156 40" fill="none" xmlns="http://www.w3.org/2000/svg">
<path d="M73.5999 30.6826H68.2535L71.5975 9.38599H76.9437L73.5999 30.6826Z" fill="#CCCED4"/>
<path d="M92.9814 9.90668C91.9268 9.47577 90.2542 9 88.186 9C82.9062 9 79.1882 11.8998 79.1654 16.0457C79.1215 19.1045 81.8274 20.8034 83.8511 21.8233C85.9196 22.8655 86.6227 23.5457 86.6227 24.4747C86.6017 25.9014 84.9513 26.5591 83.412 26.5591C81.2774 26.5591 80.1337 26.22 78.3956 25.4262L77.6916 25.086L76.9434 29.8666C78.1974 30.455 80.5076 30.9771 82.9062 31C88.5161 31 92.1683 28.1451 92.2116 23.727C92.2329 21.3027 90.8041 19.445 87.7238 17.9271C85.8538 16.9526 84.7086 16.2956 84.7086 15.2986C84.7305 14.3922 85.6772 13.4638 87.7881 13.4638C89.5262 13.4184 90.8033 13.8487 91.7707 14.2793L92.2543 14.5054L92.9814 9.90668V9.90668Z" fill="#CCCED4"/>
<path d="M100.087 23.1379C100.528 21.9145 102.222 17.1793 102.222 17.1793C102.2 17.2248 102.661 15.9333 102.925 15.1404L103.299 16.9755C103.299 16.9755 104.311 22.0732 104.531 23.1379C103.696 23.1379 101.143 23.1379 100.087 23.1379ZM106.687 9.38599H102.551C101.276 9.38599 100.307 9.77082 99.7569 11.153L91.8154 30.6823H97.4253C97.4253 30.6823 98.3488 28.0538 98.5473 27.4877C99.1628 27.4877 104.62 27.4877 105.412 27.4877C105.565 28.2353 106.05 30.6823 106.05 30.6823H111L106.687 9.38599V9.38599Z" fill="#CCCED4"/>
<path d="M63.7879 9.38599L58.552 23.9082L57.9798 20.9629C57.0118 17.5645 53.9759 13.8721 50.588 12.0362L55.3839 30.66H61.0376L69.4413 9.38599H63.7879V9.38599Z" fill="#CCCED4"/>
<path d="M53.6899 9.38599H45.088L45 9.81629C51.71 11.5836 56.154 15.8436 57.9798 20.9638L56.1098 11.1762C55.802 9.81599 54.8559 9.43085 53.6899 9.38599Z" fill="#B5BAC6"/>
</svg>
